<svg xmlns="http://www.w3.org/2000/svg" xmlns:xlink="http://www.w3.org/1999/xlink" width="128" height="128" viewBox="0 0 128 128">
  <defs>
    <clipPath id="clip-Tamanho_personalizado_2">
      <rect width="128" height="128"/>
    </clipPath>
  </defs>
  <g id="Tamanho_personalizado_2" data-name="Tamanho personalizado – 2" clip-path="url(#clip-Tamanho_personalizado_2)">
    <rect width="128" height="128" fill="#fff"/>
    <g id="video-camera" transform="translate(0 -70.114)" opacity="0.98">
      <g id="Grupo_478" data-name="Grupo 478" transform="translate(0 96.512)">
        <g id="Grupo_477" data-name="Grupo 477" transform="translate(0 0)">
          <path id="Caminho_2315" data-name="Caminho 2315" d="M72.4,96.512H14a14.046,14.046,0,0,0-14,14v47.195a14.046,14.046,0,0,0,14,14H72.4a14.046,14.046,0,0,0,14-14V110.516A13.956,13.956,0,0,0,72.4,96.512Z" transform="translate(0 -96.512)"/>
        </g>
      </g>
      <g id="Grupo_480" data-name="Grupo 480" transform="translate(93.409 103.989)">
        <g id="Grupo_479" data-name="Grupo 479">
          <path id="Caminho_2316" data-name="Caminho 2316" d="M365.731,124.073a7.136,7.136,0,0,0-2.381.98l-21.847,12.6v32.49l21.987,12.6a8.326,8.326,0,0,0,11.484-3.081,8.553,8.553,0,0,0,1.121-4.2V132.2A8.429,8.429,0,0,0,365.731,124.073Z" transform="translate(-341.504 -123.847)"/>
        </g>
      </g>
    </g>
  </g>
</svg>
