<?xml version="1.0" ?><svg fill="none" height="24" viewBox="0 0 24 24" width="24" xmlns="http://www.w3.org/2000/svg"><path clip-rule="evenodd" d="M3.5 4.00494C3.5 3.45137 3.94973 3.00312 4.5033 3.00495L19.5033 3.05441C20.0543 3.05623 20.5 3.50341 20.5 4.05441V15.5593C20.5 16.1116 20.0523 16.5593 19.5 16.5593H15.5C15.3674 16.5593 15.2402 16.612 15.1464 16.7058L12 19.8522L8.85355 16.7058C8.75978 16.612 8.63261 16.5593 8.5 16.5593H4.5C3.94772 16.5593 3.5 16.1116 3.5 15.5593V4.00494ZM4.50659 2.00495C3.39945 2.0013 2.5 2.8978 2.5 4.00494V15.5593C2.5 16.6639 3.39543 17.5593 4.5 17.5593H8.29289L11.6464 20.9129C11.8417 21.1081 12.1583 21.1081 12.3536 20.9129L15.7071 17.5593H19.5C20.6046 17.5593 21.5 16.6639 21.5 15.5593V4.05441C21.5 2.95241 20.6086 2.05805 19.5066 2.05442L4.50659 2.00495Z" fill="black" fill-rule="evenodd"/><path clip-rule="evenodd" d="M9.5 9.5C9.5 8.39543 10.3954 7.5 11.5 7.5H12.5C13.6046 7.5 14.5 8.39543 14.5 9.5V10.5C14.5 11.6046 13.6046 12.5 12.5 12.5H11.5C10.3954 12.5 9.5 11.6046 9.5 10.5V9.5ZM11.5 8.5C10.9477 8.5 10.5 8.94772 10.5 9.5V10.5C10.5 11.0523 10.9477 11.5 11.5 11.5H12.5C13.0523 11.5 13.5 11.0523 13.5 10.5V9.5C13.5 8.94772 13.0523 8.5 12.5 8.5H11.5Z" fill="black" fill-rule="evenodd"/><path clip-rule="evenodd" d="M6 10C6 6.96243 8.46243 4.5 11.5 4.5H14C16.2091 4.5 18 6.29086 18 8.5V10.25C18 11.4926 16.9926 12.5 15.75 12.5C14.5074 12.5 13.5 11.4926 13.5 10.25V10H14.5V10.25C14.5 10.9404 15.0596 11.5 15.75 11.5C16.4404 11.5 17 10.9404 17 10.25V8.5C17 6.84315 15.6569 5.5 14 5.5H11.5C9.01472 5.5 7 7.51472 7 10C7 12.4853 9.01472 14.5 11.5 14.5H13.8197C14.5183 14.5 15.2073 14.3373 15.8321 14.0249L16.7764 13.5528L17.2236 14.4472L16.2793 14.9193C15.5156 15.3012 14.6735 15.5 13.8197 15.5H11.5C8.46243 15.5 6 13.0376 6 10Z" fill="black" fill-rule="evenodd"/></svg>